<?xml version="1.0"?>
<svg xmlns="http://www.w3.org/2000/svg" xmlns:xlink="http://www.w3.org/1999/xlink" xmlns:svgjs="http://svgjs.com/svgjs" version="1.1" width="512" height="512" x="0" y="0" viewBox="0 0 495.104 495.104" style="enable-background:new 0 0 512 512" xml:space="preserve" class=""><g>
<g xmlns="http://www.w3.org/2000/svg">
	<g>
		<path d="M355.265,300.081c-4.042-1.783-8.765,0.048-10.548,4.091c-0.123,0.28-0.23,0.566-0.321,0.858    c-1.536,4.095-3.299,8.101-5.28,12c-1.988,3.954-0.394,8.772,3.56,10.76s8.772,0.394,10.76-3.56h0    c2.218-4.423,4.194-8.963,5.92-13.6C361.139,306.587,359.308,301.864,355.265,300.081z" fill="#faa515" data-original="#000000" style="" class=""/>
	</g>
</g>
<g xmlns="http://www.w3.org/2000/svg">
	<g>
		<path d="M436.507,193.345c-0.057-0.188-0.121-0.373-0.191-0.556c-15.931-46.066-46.899-85.432-87.92-111.76    c-3.838-2.189-8.724-0.853-10.913,2.985c-2.027,3.554-1.047,8.064,2.273,10.455c37.997,24.387,66.683,60.85,81.44,103.52    c1.282,4.228,5.75,6.616,9.978,5.334C435.402,202.04,437.79,197.573,436.507,193.345z" fill="#faa515" data-original="#000000" style="" class=""/>
	</g>
</g>
<g xmlns="http://www.w3.org/2000/svg">
	<g>
		<path d="M317.996,64.789v0.08c-5.04-2.16-10.08-4.16-15.12-5.92c-4.228-1.282-8.695,1.105-9.978,5.333    c-1.216,4.01,0.868,8.279,4.778,9.787c4.64,1.6,9.36,3.44,14,5.44c4.065,1.745,8.775-0.135,10.52-4.2    S322.061,66.534,317.996,64.789z" fill="#faa515" data-original="#000000" style="" class=""/>
	</g>
</g>
<g xmlns="http://www.w3.org/2000/svg">
	<g>
		<path d="M231.962,127.063c-75.111,0.019-135.985,60.923-135.966,136.034c0.019,75.111,60.923,135.985,136.034,135.966    c37.775-0.01,73.844-15.73,99.566-43.394c2.652-3.534,1.937-8.549-1.597-11.2c-2.998-2.249-7.155-2.116-10.003,0.32    c-45.058,48.601-120.983,51.473-169.584,6.415c-48.601-45.058-51.473-120.983-6.415-169.584    c45.058-48.601,120.983-51.473,169.584-6.415c24.449,22.667,38.367,54.484,38.415,87.824c0,3.04,0,6,0,8.96    c-0.331,4.418,2.982,8.269,7.4,8.6s8.269-2.982,8.6-7.4c0-3.36,0-6.747,0-10.16C367.977,187.918,307.073,127.044,231.962,127.063z    " fill="#faa515" data-original="#000000" style="" class=""/>
	</g>
</g>
<g xmlns="http://www.w3.org/2000/svg">
	<g>
		<path d="M231.996,223.029c-22.091,0-40,17.909-40,40s17.909,40,40,40c22.091,0,40-17.909,40-40S254.088,223.029,231.996,223.029z     M231.996,289.029c-14.359,0-26-11.641-26-26c0-14.359,11.641-26,26-26c14.359,0,26,11.641,26,26    C257.996,277.389,246.356,289.029,231.996,289.029z" fill="#faa515" data-original="#000000" style="" class=""/>
	</g>
</g>
<g xmlns="http://www.w3.org/2000/svg">
	<g>
		<circle cx="231.996" cy="191.029" r="16" fill="#faa515" data-original="#000000" style="" class=""/>
	</g>
</g>
<g xmlns="http://www.w3.org/2000/svg">
	<g>
		<circle cx="231.996" cy="335.029" r="16" fill="#faa515" data-original="#000000" style="" class=""/>
	</g>
</g>
<g xmlns="http://www.w3.org/2000/svg">
	<g>
		<circle cx="159.996" cy="263.029" r="16" fill="#faa515" data-original="#000000" style="" class=""/>
	</g>
</g>
<g xmlns="http://www.w3.org/2000/svg">
	<g>
		<circle cx="303.996" cy="263.029" r="16" fill="#faa515" data-original="#000000" style="" class=""/>
	</g>
</g>
<g xmlns="http://www.w3.org/2000/svg">
	<g>
		<path d="M495.036,239.589C483.956,112.087,382.79,11.022,255.276,0.069c-7.733-0.584-15.273,2.604-20.24,8.56    c-5.099,6.111-6.836,14.351-4.64,22v0.48C102.269,31.995-0.88,136.581,0.006,264.708    c0.886,128.127,105.471,231.276,233.598,230.39c126.969-0.878,229.645-103.659,230.392-230.629h0.48    c7.649,2.196,15.89,0.458,22-4.64C492.432,254.862,495.621,247.323,495.036,239.589z M447.996,263.029    c0,119.294-96.706,216-216,216s-216-96.706-216-216s96.706-216,216-216h3.12l12.16,42.56c3.679,13.113,13.778,23.452,26.8,27.44    c50.152,14.631,89.369,53.848,104,104c3.988,13.022,14.327,23.121,27.44,26.8l42.48,12.08    C447.996,260.949,447.996,261.989,447.996,263.029z M476.236,247.669c-2.051,1.754-4.849,2.356-7.44,1.6l-9.92-2.8h-1.2l-48-13.68    c-7.855-2.188-14.061-8.214-16.48-16c-16.083-55.395-59.302-98.764-114.64-115.04c-7.786-2.419-13.812-8.625-16-16.48l-16.8-59.04    c-0.756-2.591-0.154-5.389,1.6-7.44c1.424-1.767,3.571-2.796,5.84-2.8h0.64c119.85,10.299,214.901,105.35,225.2,225.2    C479.238,243.68,478.188,246.109,476.236,247.669z" fill="#faa515" data-original="#000000" style="" class=""/>
	</g>
</g>
<g xmlns="http://www.w3.org/2000/svg">
	<g>
		<path d="M63.996,247.029h-16c-4.418,0-8,3.582-8,8s3.582,8,8,8h16c4.418,0,8-3.582,8-8S68.414,247.029,63.996,247.029z" fill="#faa515" data-original="#000000" style="" class=""/>
	</g>
</g>
<g xmlns="http://www.w3.org/2000/svg">
	<g>
		<path d="M231.996,415.029c-4.418,0-8,3.582-8,8v16c0,4.418,3.582,8,8,8s8-3.582,8-8v-16    C239.996,418.611,236.414,415.029,231.996,415.029z" fill="#faa515" data-original="#000000" style="" class=""/>
	</g>
</g>
<g xmlns="http://www.w3.org/2000/svg">
	<g>
		<path d="M196.236,90.869l-4.24-15.6c-1.003-4.303-5.304-6.979-9.607-5.976c-4.303,1.003-6.979,5.304-5.976,9.607    c0.041,0.178,0.089,0.355,0.143,0.529l4.24,15.6c1.295,4.224,5.769,6.599,9.993,5.304C194.81,99.1,197.19,94.965,196.236,90.869z" fill="#faa515" data-original="#000000" style="" class=""/>
	</g>
</g>
<g xmlns="http://www.w3.org/2000/svg">
	<g>
		<path d="M287.356,431.029l-4.16-16c-1.295-4.224-5.769-6.599-9.993-5.304c-4.021,1.233-6.401,5.368-5.447,9.464l4.24,15.6    c1.692,4.082,6.372,6.019,10.453,4.327C285.674,437.78,287.66,434.507,287.356,431.029z" fill="#faa515" data-original="#000000" style="" class=""/>
	</g>
</g>
<g xmlns="http://www.w3.org/2000/svg">
	<g>
		<path d="M155.214,106.093c-0.104-0.199-0.217-0.394-0.337-0.584l-8-13.84c-2.37-3.729-7.315-4.83-11.043-2.459    c-3.508,2.23-4.724,6.776-2.797,10.459l8,13.84c2.048,3.915,6.882,5.429,10.797,3.381S157.261,110.008,155.214,106.093z" fill="#faa515" data-original="#000000" style="" class=""/>
	</g>
</g>
<g xmlns="http://www.w3.org/2000/svg">
	<g>
		<path d="M331.293,410.973c-0.104-0.199-0.217-0.394-0.337-0.584l-8-13.84c-2.37-3.729-7.315-4.83-11.043-2.459    c-3.508,2.23-4.724,6.776-2.797,10.459l8,13.84c2.048,3.915,6.882,5.428,10.797,3.38S333.341,414.888,331.293,410.973z" fill="#faa515" data-original="#000000" style="" class=""/>
	</g>
</g>
<g xmlns="http://www.w3.org/2000/svg">
	<g>
		<path d="M118.796,130.629l-11.28-11.6c-3.181-3.181-8.339-3.181-11.52,0s-3.181,8.339,0,11.52l11.52,11.36    c3.356,2.874,8.406,2.483,11.28-0.873C121.361,138.041,121.361,133.624,118.796,130.629z" fill="#faa515" data-original="#000000" style="" class=""/>
	</g>
</g>
<g xmlns="http://www.w3.org/2000/svg">
	<g>
		<path d="M367.996,379.509l-11.52-11.36c-3.356-2.874-8.406-2.483-11.28,0.873c-2.565,2.995-2.565,7.412,0,10.407l11.28,11.6    c3.181,3.181,8.339,3.181,11.52,0S371.177,382.69,367.996,379.509z" fill="#faa515" data-original="#000000" style="" class=""/>
	</g>
</g>
<g xmlns="http://www.w3.org/2000/svg">
	<g>
		<path d="M90.476,164.069l-13.84-8c-3.729-2.37-8.673-1.269-11.043,2.459s-1.269,8.673,2.459,11.043    c0.19,0.121,0.384,0.233,0.584,0.337l13.84,8c3.915,2.048,8.749,0.534,10.797-3.381C95.2,170.845,93.984,166.299,90.476,164.069z" fill="#faa515" data-original="#000000" style="" class=""/>
	</g>
</g>
<g xmlns="http://www.w3.org/2000/svg">
	<g>
		<path d="M71.996,203.829l-16-4.16c-4.087-1.679-8.761,0.274-10.44,4.361c-1.679,4.087,0.274,8.761,4.361,10.439    c0.715,0.294,1.469,0.482,2.239,0.56l15.44,4.16c4.306,0.991,8.6-1.696,9.591-6.001C78.105,209.2,75.865,205.162,71.996,203.829z" fill="#faa515" data-original="#000000" style="" class=""/>
	</g>
</g>
<g xmlns="http://www.w3.org/2000/svg">
</g>
<g xmlns="http://www.w3.org/2000/svg">
</g>
<g xmlns="http://www.w3.org/2000/svg">
</g>
<g xmlns="http://www.w3.org/2000/svg">
</g>
<g xmlns="http://www.w3.org/2000/svg">
</g>
<g xmlns="http://www.w3.org/2000/svg">
</g>
<g xmlns="http://www.w3.org/2000/svg">
</g>
<g xmlns="http://www.w3.org/2000/svg">
</g>
<g xmlns="http://www.w3.org/2000/svg">
</g>
<g xmlns="http://www.w3.org/2000/svg">
</g>
<g xmlns="http://www.w3.org/2000/svg">
</g>
<g xmlns="http://www.w3.org/2000/svg">
</g>
<g xmlns="http://www.w3.org/2000/svg">
</g>
<g xmlns="http://www.w3.org/2000/svg">
</g>
<g xmlns="http://www.w3.org/2000/svg">
</g>
</g></svg>
