<?xml version="1.0"?>
<svg xmlns="http://www.w3.org/2000/svg" xmlns:xlink="http://www.w3.org/1999/xlink" xmlns:svgjs="http://svgjs.com/svgjs" version="1.1" width="512" height="512" x="0" y="0" viewBox="0 0 58 40" style="enable-background:new 0 0 512 512" xml:space="preserve"><g><g xmlns="http://www.w3.org/2000/svg" id="Page-1" fill="none" fill-rule="evenodd"><g id="020---Train" fill="rgb(0,0,0)" fill-rule="nonzero"><path id="Shape" d="m56 35h-54c-1.1045695 0-2 .8954305-2 2v1c0 1.1045695.8954305 2 2 2h54c1.1045695 0 2-.8954305 2-2v-1c0-1.1045695-.8954305-2-2-2z" fill="#ff8100" data-original="#000000" style=""/><path id="Shape" d="m14 24c.5522847 0 1-.4477153 1-1v-16c0-.55228475-.4477153-1-1-1h-7c-.55228475 0-1 .44771525-1 1v16c0 .5522847.44771525 1 1 1zm-5-16h3c.5522847 0 1 .44771525 1 1s-.4477153 1-1 1h-3c-.55228475 0-1-.44771525-1-1s.44771525-1 1-1zm0 4h3c.5522847 0 1 .4477153 1 1s-.4477153 1-1 1h-3c-.55228475 0-1-.4477153-1-1s.44771525-1 1-1z" fill="#ff8100" data-original="#000000" style=""/><rect id="Rectangle-path" height="9" rx="1" width="9" x="22" y="6" fill="#ff8100" data-original="#000000" style=""/><path id="Shape" d="m38 7v7c0 .5522847.4477153 1 1 1h15.07l-6-9h-9.07c-.5522847 0-1 .44771525-1 1z" fill="#ff8100" data-original="#000000" style=""/><path id="Shape" d="m36.975 30h2.05c.2699671 2.8217766 2.6403385 4.9761918 5.475 4.9761918s5.2050329-2.1544152 5.475-4.9761918h1.015c2.0373863.0018027 3.9744602-.8841321 5.3055867-2.4265485s1.9242011-3.5882409 1.6244133-5.6034515c-.0715275.0204398-.1456113.0305422-.22.03h-12.7c-.5522847 0-1-.4477153-1-1s.4477153-1 1-1h12.31c-.1454018-.3049161-.3124976-.5990047-.5-.88l-1.41-2.12h-16.4c-1.6548028-.0049422-2.9950578-1.3451972-3-3v-7c.0049422-1.6548028 1.3451972-2.9950578 3-3h7.74l-.59-.88c-1.2998213-1.94893087-3.4873803-3.11963139-5.83-3.12h-38.32c-1.10320187.0032948-1.9967052.89679813-2 2v18h4v-13c.0049422-1.6548028 1.3451972-2.9950578 3-3h7c1.6548028.0049422 2.9950578 1.3451972 3 3v13h23c.5522847 0 1 .4477153 1 1s-.4477153 1-1 1h-23v1c-.0049422 1.6548028-1.3451972 2.9950578-3 3h-7c-1.6548028-.0049422-2.9950578-1.3451972-3-3v-1h-4v8h26.025c.2699671 2.8217766 2.6403385 4.9761918 5.475 4.9761918s5.2050329-2.1544152 5.475-4.9761918zm-3.975-16c-.0049422 1.6548028-1.3451972 2.9950578-3 3h-7c-1.6548028-.0049422-2.9950578-1.3451972-3-3v-7c.0049422-1.6548028 1.3451972-2.9950578 3-3h7c1.6548028.0049422 2.9950578 1.3451972 3 3zm11.5 19c-1.7390685-.0025583-3.2135879-1.2791985-3.465-3h6.93c-.2514121 1.7208015-1.7259315 2.9974417-3.465 3zm-13 0c-1.7390685-.0025583-3.2135879-1.2791985-3.465-3h6.93c-.2514121 1.7208015-1.7259315 2.9974417-3.465 3z" fill="#ff8100" data-original="#000000" style=""/></g></g></g></svg>
